#define knightPW_width 64
#define knightPW_height 64
static unsigned char knightPW_bits[] = {
   0x00, 0x00, 0x00, 0x00, 0x00, 0x00, 0x00, 0x00, 0x00, 0x00, 0x00, 0x00,
   0x00, 0x00, 0x00, 0x00, 0x00, 0x00, 0x00, 0x00, 0x00, 0x00, 0x00, 0x00,
   0x00, 0x00, 0x00, 0x00, 0x00, 0x00, 0x00, 0x00, 0x00, 0x00, 0x00, 0x00,
   0x00, 0x00, 0x00, 0x00, 0x00, 0x00, 0x00, 0xf0, 0x01, 0x00, 0x00, 0x00,
   0x00, 0x00, 0x00, 0x4f, 0x0e, 0x00, 0x00, 0x00, 0x00, 0x00, 0xf0, 0x80,
   0x70, 0x00, 0x00, 0x00, 0x00, 0x00, 0x0f, 0xc0, 0x81, 0x03, 0x00, 0x00,
   0x00, 0xf0, 0x00, 0x38, 0x0e, 0x1c, 0x00, 0x00, 0x00, 0x08, 0x00, 0x07,
   0x70, 0x60, 0x00, 0x00, 0x00, 0x0c, 0xe0, 0xe0, 0x83, 0x83, 0x00, 0x00,
   0x00, 0x14, 0x1c, 0x10, 0x04, 0x1c, 0x01, 0x00, 0x00, 0x94, 0x03, 0x28,
   0x0a, 0xe0, 0x01, 0x00, 0x00, 0x64, 0x00, 0x64, 0x12, 0x00, 0x03, 0x00,
   0x00, 0x22, 0x00, 0xe4, 0x12, 0x00, 0x02, 0x00, 0x00, 0x22, 0x00, 0xa4,
   0x12, 0x00, 0x02, 0x00, 0x00, 0x22, 0x00, 0xa4, 0x13, 0x00, 0x02, 0x00,
   0x00, 0x22, 0x00, 0x24, 0x13, 0x00, 0x02, 0x00, 0x00, 0x12, 0x00, 0x28,
   0x0a, 0x00, 0x04, 0x00, 0x00, 0x12, 0x00, 0x10, 0x04, 0x00, 0x04, 0x00,
   0x00, 0x11, 0x00, 0xe0, 0x03, 0x00, 0x04, 0x00, 0x00, 0x11, 0x00, 0x00,
   0x00, 0x00, 0x04, 0x00, 0x00, 0x11, 0x00, 0x00, 0x00, 0x00, 0x04, 0x00,
   0x00, 0x11, 0x00, 0x00, 0x00, 0x00, 0x04, 0x00, 0x00, 0x11, 0x08, 0x80,
   0x00, 0x08, 0x04, 0x00, 0x00, 0x09, 0x10, 0x80, 0x00, 0x04, 0x08, 0x00,
   0x80, 0x08, 0x20, 0x80, 0x00, 0x02, 0x08, 0x00, 0x80, 0x08, 0x40, 0x80,
   0x00, 0x01, 0x08, 0x00, 0x80, 0x08, 0x80, 0x80, 0x80, 0x00, 0x08, 0x00,
   0x80, 0x08, 0x00, 0x81, 0x40, 0x00, 0x08, 0x00, 0x80, 0x08, 0x00, 0x82,
   0x20, 0x00, 0x08, 0x00, 0x80, 0x08, 0x00, 0x84, 0x10, 0x00, 0x08, 0x00,
   0x40, 0x04, 0x00, 0x88, 0x08, 0x00, 0x10, 0x00, 0x40, 0x04, 0x00, 0x90,
   0x04, 0x00, 0x10, 0x00, 0x40, 0x04, 0x00, 0xa0, 0x02, 0x00, 0x10, 0x00,
   0x40, 0x04, 0x00, 0xc0, 0x01, 0x00, 0x10, 0x00, 0x40, 0x04, 0xf8, 0xff,
   0xff, 0x0f, 0x10, 0x00, 0x40, 0x04, 0x00, 0x80, 0x00, 0x00, 0x10, 0x00,
   0x20, 0x02, 0x00, 0x80, 0x00, 0x00, 0x20, 0x00, 0x20, 0x02, 0x00, 0x80,
   0x00, 0x00, 0x20, 0x00, 0x20, 0x02, 0x00, 0x80, 0x00, 0x00, 0x20, 0x00,
   0x20, 0x02, 0x00, 0x80, 0x00, 0x00, 0x20, 0x00, 0x20, 0x02, 0x00, 0x80,
   0x00, 0x00, 0x20, 0x00, 0x20, 0x02, 0x00, 0x80, 0x00, 0x00, 0x20, 0x00,
   0x10, 0x02, 0x00, 0x80, 0x00, 0x00, 0x20, 0x00, 0x10, 0x01, 0x00, 0x80,
   0x00, 0x00, 0x40, 0x00, 0x10, 0x01, 0x00, 0x80, 0x00, 0x00, 0x40, 0x00,
   0x10, 0x01, 0x00, 0x80, 0x00, 0x00, 0x40, 0x00, 0x10, 0x01, 0x00, 0x80,
   0x00, 0x00, 0x40, 0x00, 0x20, 0x01, 0x00, 0x00, 0x00, 0x00, 0x40, 0x00,
   0x20, 0x01, 0x00, 0x00, 0x00, 0x00, 0x40, 0x00, 0x20, 0x01, 0x00, 0x00,
   0x00, 0x00, 0x40, 0x00, 0xa0, 0x00, 0x00, 0x00, 0x00, 0x00, 0x80, 0x00,
   0xc0, 0x00, 0x00, 0x00, 0x00, 0x00, 0x80, 0x00, 0xc0, 0x00, 0x00, 0x00,
   0x00, 0x00, 0xc0, 0x00, 0x80, 0xff, 0xff, 0xff, 0xff, 0xff, 0x7f, 0x00,
   0x00, 0x00, 0x00, 0x00, 0x00, 0x00, 0x00, 0x00, 0x00, 0x00, 0x00, 0x00,
   0x00, 0x00, 0x00, 0x00, 0x00, 0x00, 0x00, 0x00, 0x00, 0x00, 0x00, 0x00,
   0x00, 0x00, 0x00, 0x00, 0x00, 0x00, 0x00, 0x00, 0x00, 0x00, 0x00, 0x00,
   0x00, 0x00, 0x00, 0x00, 0x00, 0x00, 0x00, 0x00, 0x00, 0x00, 0x00, 0x00,
   0x00, 0x00, 0x00, 0x00, 0x00, 0x00, 0x00, 0x00 };
