#define kingRW_width 32
#define kingRW_height 32
static char kingRW_bits[] = {
   0xfe, 0xff, 0xff, 0xff, 0xff, 0xff, 0xff, 0xff, 0x01, 0x00, 0x00, 0xc0,
   0x01, 0x00, 0x00, 0xc0, 0x01, 0x00, 0x00, 0xc0, 0x01, 0xff, 0x7f, 0x40,
   0x02, 0x01, 0x40, 0x60, 0x82, 0x40, 0x82, 0x60, 0x82, 0x40, 0x81, 0x60,
   0x82, 0xc0, 0x80, 0x20, 0x84, 0x40, 0x81, 0x30, 0x84, 0x40, 0x82, 0x30,
   0x84, 0x40, 0x82, 0x30, 0x84, 0x08, 0x88, 0x10, 0x08, 0x15, 0x54, 0x18,
   0x08, 0x15, 0x54, 0x18, 0x08, 0x15, 0x54, 0x18, 0x08, 0x22, 0x22, 0x08,
   0x10, 0x22, 0x22, 0x0c, 0x10, 0x40, 0x01, 0x0c, 0x10, 0x80, 0x00, 0x0c,
   0x10, 0xc0, 0x01, 0x04, 0x20, 0x60, 0x03, 0x06, 0x20, 0xe0, 0x03, 0x06,
   0x20, 0xc0, 0x01, 0x06, 0x20, 0x00, 0x00, 0x02, 0xc0, 0x00, 0x80, 0x01,
   0x00, 0x03, 0x60, 0x00, 0x00, 0x0c, 0x18, 0x00, 0x00, 0x30, 0x06, 0x00,
   0x00, 0xc0, 0x01, 0x00, 0x00, 0x00, 0x00, 0x00};
