#define pawnW_width 32
#define pawnW_height 32
static char pawnW_bits[] = {
   0x00, 0x00, 0x00, 0x00, 0x00, 0xc0, 0x01, 0x00, 0x00, 0x30, 0x06, 0x00,
   0x00, 0x0c, 0x18, 0x00, 0x00, 0x03, 0x60, 0x00, 0xc0, 0x00, 0x80, 0x01,
   0x20, 0x00, 0x00, 0x02, 0x20, 0x80, 0x00, 0x06, 0x20, 0x80, 0x00, 0x06,
   0x20, 0x80, 0x00, 0x06, 0x10, 0x80, 0x00, 0x04, 0x10, 0x80, 0x00, 0x0c,
   0x10, 0x80, 0x00, 0x0c, 0x10, 0x40, 0x01, 0x0c, 0x08, 0x40, 0x01, 0x08,
   0x08, 0x40, 0x01, 0x18, 0x08, 0x40, 0x01, 0x18, 0x08, 0x40, 0x01, 0x18,
   0x04, 0x40, 0x01, 0x10, 0x04, 0x40, 0x01, 0x30, 0x04, 0x40, 0x01, 0x30,
   0x04, 0x40, 0x01, 0x30, 0x02, 0x20, 0x02, 0x20, 0x02, 0x10, 0x04, 0x60,
   0x02, 0xf8, 0x0f, 0x60, 0x02, 0x00, 0x00, 0x60, 0x01, 0x00, 0x00, 0x40,
   0x01, 0x00, 0x00, 0xc0, 0x01, 0x00, 0x00, 0xc0, 0x01, 0x00, 0x00, 0xc0,
   0xff, 0xff, 0xff, 0xff, 0xfe, 0xff, 0xff, 0xff};
