#define bishopR_l_width 64
#define bishopR_l_height 64
static unsigned char bishopR_l_bits[] = {
  0x00, 0x00, 0x00, 0x00, 0x00, 0x00, 0x00, 0x00, 0x00, 0x00, 0x00, 0x00,
  0x00, 0x00, 0x00, 0x00, 0xfe, 0xff, 0xff, 0xff, 0xff, 0xff, 0xff, 0x07,
  0x06, 0x00, 0x00, 0x00, 0x00, 0x00, 0x00, 0x08, 0x0a, 0x00, 0x00, 0x00,
  0x00, 0x00, 0x00, 0x10, 0x12, 0x00, 0x00, 0x00, 0x00, 0x00, 0x00, 0x20,
  0xe4, 0xff, 0xff, 0xff, 0xff, 0xff, 0xff, 0x7f, 0x24, 0x00, 0x00, 0x00,
  0x00, 0x00, 0x00, 0x40, 0x24, 0x00, 0x00, 0x00, 0x00, 0x00, 0x00, 0x40,
  0x24, 0x00, 0x00, 0x00, 0x00, 0x00, 0x00, 0x40, 0x24, 0x00, 0x00, 0x00,
  0x00, 0x00, 0x00, 0x40, 0x24, 0x00, 0x00, 0x00, 0x00, 0x00, 0x00, 0x40,
  0x24, 0x00, 0x00, 0x00, 0x00, 0x00, 0x00, 0x20, 0x44, 0x00, 0x00, 0x00,
  0x00, 0x00, 0x00, 0x20, 0x48, 0x00, 0xc0, 0x00, 0x80, 0x00, 0x00, 0x20,
  0x48, 0x00, 0xe0, 0x03, 0x80, 0x01, 0x00, 0x20, 0x48, 0x00, 0x60, 0x07,
  0x80, 0x01, 0x00, 0x20, 0x48, 0x00, 0x60, 0x0e, 0x80, 0x01, 0x00, 0x20,
  0x48, 0x00, 0x60, 0x18, 0x80, 0x01, 0x00, 0x10, 0x48, 0x00, 0x60, 0x30,
  0x80, 0x19, 0x00, 0x10, 0x88, 0x00, 0x60, 0x00, 0x80, 0x0f, 0x00, 0x10,
  0x90, 0x00, 0x40, 0x00, 0x00, 0x07, 0x00, 0x10, 0x90, 0x00, 0x40, 0xf0,
  0x81, 0x03, 0x00, 0x10, 0x90, 0x00, 0xe0, 0xff, 0xc1, 0x01, 0x00, 0x10,
  0x90, 0x00, 0xf0, 0x1f, 0xe0, 0x18, 0x00, 0x08, 0x90, 0x00, 0x00, 0x00,
  0x78, 0x0c, 0x00, 0x08, 0x10, 0x01, 0x80, 0xff, 0x78, 0x07, 0x00, 0x08,
  0x10, 0x01, 0x80, 0x7f, 0xa0, 0x03, 0x00, 0x08, 0x20, 0x01, 0x00, 0x00,
  0xc0, 0x01, 0x00, 0x08, 0x20, 0x01, 0x00, 0x00, 0xc0, 0x01, 0x00, 0x08,
  0x20, 0x01, 0x00, 0x00, 0xc0, 0x00, 0x00, 0x04, 0x20, 0x01, 0x00, 0x0c,
  0x00, 0x00, 0x00, 0x04, 0x20, 0x01, 0x00, 0x1c, 0x00, 0x00, 0x00, 0x04,
  0x20, 0x02, 0x00, 0x04, 0x00, 0x00, 0x00, 0x04, 0x20, 0x02, 0x00, 0x0c,
  0xf8, 0x01, 0x00, 0x04, 0x40, 0x02, 0x00, 0xfc, 0xbf, 0x01, 0x00, 0x04,
  0x40, 0x02, 0x00, 0xfc, 0x87, 0x01, 0x00, 0x02, 0x40, 0x02, 0x00, 0x0c,
  0xf6, 0x01, 0x00, 0x02, 0x40, 0x02, 0x00, 0xdc, 0xff, 0x01, 0x00, 0x02,
  0x40, 0x02, 0x00, 0xfc, 0x87, 0x01, 0x00, 0x02, 0x40, 0x04, 0x00, 0x0c,
  0xc6, 0x01, 0x00, 0x02, 0x80, 0x04, 0x00, 0x8c, 0xff, 0x00, 0x00, 0x02,
  0x80, 0x04, 0x00, 0xf8, 0xff, 0x00, 0x00, 0x01, 0x80, 0x04, 0x00, 0x00,
  0x00, 0x00, 0x00, 0x01, 0x80, 0x04, 0x00, 0x00, 0x04, 0x00, 0x00, 0x01,
  0x80, 0x04, 0x00, 0x00, 0x07, 0x00, 0x00, 0x01, 0x80, 0x08, 0x00, 0x80,
  0x63, 0x00, 0x00, 0x01, 0x80, 0x08, 0x00, 0xc0, 0x71, 0x00, 0x00, 0x01,
  0x00, 0x09, 0x00, 0xc0, 0x3f, 0x00, 0x00, 0x01, 0x00, 0x09, 0x00, 0xc0,
  0x1b, 0x00, 0x80, 0x00, 0x00, 0x09, 0x00, 0x00, 0x08, 0x00, 0x80, 0x00,
  0x00, 0x09, 0x00, 0x00, 0x00, 0x00, 0x80, 0x00, 0x00, 0x09, 0x00, 0x00,
  0x00, 0x00, 0x80, 0x00, 0x00, 0x12, 0x00, 0x00, 0x00, 0x00, 0x80, 0x00,
  0x00, 0x14, 0x00, 0x00, 0x00, 0x00, 0x80, 0x00, 0x00, 0x18, 0x00, 0x00,
  0x00, 0x00, 0x80, 0x00, 0x00, 0x10, 0x00, 0x00, 0x00, 0x00, 0x70, 0x00,
  0x00, 0x60, 0x00, 0x00, 0x00, 0x00, 0x0f, 0x00, 0x00, 0x80, 0x07, 0x00,
  0x00, 0xf0, 0x00, 0x00, 0x00, 0x00, 0x38, 0x00, 0x00, 0x0e, 0x00, 0x00,
  0x00, 0x00, 0xc0, 0x03, 0xe0, 0x01, 0x00, 0x00, 0x00, 0x00, 0x00, 0x3c,
  0x1e, 0x00, 0x00, 0x00, 0x00, 0x00, 0x00, 0xc0, 0x01, 0x00, 0x00, 0x00,
  0x00, 0x00, 0x00, 0x00, 0x00, 0x00, 0x00, 0x00, };
