#define bishopP_l_width 64
#define bishopP_l_height 64
static unsigned char bishopP_l_bits[] = {
  0x00, 0x00, 0x00, 0x00, 0x00, 0x00, 0x00, 0x00, 0x00, 0x00, 0x00, 0x00,
  0x00, 0x00, 0x00, 0x00, 0x00, 0x00, 0x00, 0xf0, 0x03, 0x00, 0x00, 0x00,
  0x00, 0x00, 0x00, 0x8e, 0x3c, 0x00, 0x00, 0x00, 0x00, 0x00, 0xe0, 0x81,
  0xc0, 0x03, 0x00, 0x00, 0x00, 0x00, 0x1e, 0x00, 0x01, 0x3c, 0x00, 0x00,
  0x00, 0xe0, 0x01, 0xc0, 0x01, 0xc0, 0x03, 0x00, 0x00, 0x1c, 0x00, 0x3c,
  0x1e, 0x00, 0x1c, 0x00, 0x00, 0x04, 0xc0, 0x03, 0xe0, 0x01, 0x10, 0x00,
  0x00, 0x06, 0x38, 0x00, 0x00, 0x0e, 0x60, 0x00, 0x00, 0x8a, 0x07, 0x00,
  0x00, 0xf0, 0x40, 0x00, 0x00, 0x7a, 0x00, 0x00, 0x00, 0x00, 0x4f, 0x00,
  0x00, 0x12, 0x00, 0x00, 0x00, 0x00, 0x70, 0x00, 0x00, 0x12, 0x60, 0x00,
  0x00, 0x00, 0x80, 0x00, 0x00, 0x11, 0xc0, 0x00, 0x07, 0x00, 0x80, 0x00,
  0x00, 0x11, 0xc0, 0x0c, 0x0f, 0x00, 0x80, 0x00, 0x00, 0x09, 0xf0, 0x0f,
  0x0e, 0x00, 0x80, 0x00, 0x00, 0x09, 0xf8, 0x03, 0x0e, 0x00, 0x80, 0x00,
  0x00, 0x09, 0xc0, 0x00, 0x0e, 0x00, 0x80, 0x00, 0x00, 0x09, 0xc0, 0x0e,
  0x0e, 0x00, 0x80, 0x00, 0x00, 0x09, 0xc0, 0x0f, 0x0e, 0x00, 0x00, 0x01,
  0x80, 0x08, 0xc0, 0x01, 0x06, 0x0e, 0x00, 0x01, 0x80, 0x08, 0x00, 0x7c,
  0x86, 0x07, 0x00, 0x01, 0x80, 0x04, 0xc0, 0x3f, 0xc6, 0x03, 0x00, 0x01,
  0x80, 0x04, 0xfe, 0x1f, 0xf6, 0x01, 0x00, 0x01, 0x80, 0x04, 0xf8, 0x0f,
  0x7e, 0x00, 0x00, 0x01, 0x80, 0x04, 0x80, 0x03, 0x3e, 0x00, 0x00, 0x01,
  0x80, 0x04, 0xc0, 0x0d, 0x0f, 0x07, 0x00, 0x02, 0x40, 0x04, 0xf0, 0x98,
  0x87, 0x07, 0x00, 0x02, 0x40, 0x02, 0x70, 0xd8, 0xcf, 0x01, 0x00, 0x02,
  0x40, 0x02, 0x38, 0xfc, 0x68, 0x00, 0x00, 0x02, 0x40, 0x02, 0x1c, 0x3c,
  0x0c, 0x1f, 0x00, 0x02, 0x40, 0x02, 0x8c, 0x1f, 0xec, 0x3f, 0x00, 0x02,
  0x40, 0x02, 0x8e, 0x19, 0x7e, 0x38, 0x00, 0x04, 0x20, 0x02, 0x87, 0x19,
  0x0c, 0x3c, 0x00, 0x04, 0x20, 0x02, 0x81, 0x1b, 0x00, 0x1e, 0x00, 0x04,
  0x20, 0x01, 0x00, 0x1e, 0x80, 0x0f, 0x00, 0x04, 0x20, 0x01, 0x00, 0x0c,
  0xf0, 0x01, 0x00, 0x04, 0x20, 0x01, 0x00, 0x00, 0x30, 0x00, 0x00, 0x04,
  0x20, 0x01, 0x00, 0x00, 0x00, 0x00, 0x00, 0x08, 0x20, 0x01, 0xc0, 0xfd,
  0x3f, 0x00, 0x00, 0x08, 0x10, 0x01, 0xc0, 0xff, 0x7f, 0x00, 0x00, 0x08,
  0x10, 0x01, 0xc0, 0x87, 0x03, 0x00, 0x00, 0x08, 0x90, 0x00, 0x00, 0xf0,
  0x03, 0x00, 0x00, 0x08, 0x90, 0x00, 0x00, 0xf8, 0x00, 0x00, 0x00, 0x08,
  0x90, 0x00, 0x00, 0x60, 0x1f, 0x00, 0x00, 0x10, 0x90, 0x00, 0x00, 0xf0,
  0x1f, 0x00, 0x00, 0x10, 0x90, 0x00, 0xc0, 0x0f, 0x30, 0x00, 0x00, 0x10,
  0x88, 0x00, 0xc0, 0x1f, 0x30, 0x00, 0x00, 0x10, 0x48, 0x00, 0xe0, 0x1c,
  0x38, 0x00, 0x00, 0x10, 0x48, 0x00, 0xe0, 0x18, 0x1c, 0x00, 0x00, 0x10,
  0x48, 0x00, 0xc0, 0xc1, 0x0f, 0x00, 0x00, 0x20, 0x48, 0x00, 0x00, 0xff,
  0x0f, 0x00, 0x00, 0x20, 0x48, 0x00, 0x00, 0xfc, 0x03, 0x00, 0x00, 0x20,
  0x48, 0x00, 0x00, 0x00, 0x00, 0x00, 0x00, 0x20, 0x44, 0x00, 0x00, 0x00,
  0x00, 0x00, 0x00, 0x20, 0x24, 0x00, 0x00, 0x00, 0x00, 0x00, 0x00, 0x20,
  0x24, 0x00, 0x00, 0x00, 0x00, 0x00, 0x00, 0x40, 0x24, 0x00, 0x00, 0x00,
  0x00, 0x00, 0x00, 0x40, 0x28, 0x00, 0x00, 0x00, 0x00, 0x00, 0x00, 0x40,
  0x30, 0x00, 0x00, 0x00, 0x00, 0x00, 0x00, 0x40, 0x30, 0x00, 0x00, 0x00,
  0x00, 0x00, 0x00, 0x60, 0xe0, 0xff, 0xff, 0xff, 0xff, 0xff, 0xff, 0x3f,
  0x00, 0x00, 0x00, 0x00, 0x00, 0x00, 0x00, 0x00, };
