#define knightR_l_width 64
#define knightR_l_height 64
static unsigned char knightR_l_bits[] = {
  0x00, 0x00, 0x00, 0x00, 0x00, 0x00, 0x00, 0x00, 0x00, 0x00, 0x00, 0x00,
  0x00, 0x00, 0x00, 0x00, 0x00, 0x00, 0x00, 0x00, 0x00, 0x00, 0x00, 0x00,
  0xf8, 0xff, 0xff, 0xff, 0xff, 0xff, 0x3f, 0x00, 0x18, 0x00, 0x00, 0x00,
  0x00, 0x00, 0x40, 0x00, 0x28, 0x00, 0x00, 0x00, 0x00, 0x00, 0x80, 0x00,
  0x48, 0x00, 0x00, 0x00, 0x00, 0x00, 0x00, 0x01, 0x90, 0xff, 0xff, 0xff,
  0xff, 0xff, 0xff, 0x01, 0x10, 0x01, 0x00, 0x00, 0x00, 0x00, 0x00, 0x01,
  0x10, 0x01, 0x00, 0x00, 0x00, 0x00, 0x00, 0x01, 0x10, 0x01, 0x00, 0x1e,
  0x00, 0x00, 0x00, 0x01, 0x10, 0x02, 0x00, 0x1f, 0x00, 0x00, 0x80, 0x00,
  0x10, 0x02, 0x00, 0x1f, 0x00, 0x00, 0x80, 0x00, 0x20, 0x02, 0x80, 0x31,
  0x00, 0x00, 0x80, 0x00, 0x20, 0x02, 0xc0, 0x31, 0x00, 0x00, 0x80, 0x00,
  0x20, 0x02, 0xc0, 0x00, 0x00, 0x00, 0x80, 0x00, 0x20, 0x02, 0x60, 0x38,
  0xe7, 0x0e, 0x80, 0x00, 0x20, 0x02, 0x70, 0x38, 0xe7, 0x0e, 0x80, 0x00,
  0x20, 0x04, 0x30, 0x70, 0xc6, 0x0c, 0x40, 0x00, 0x20, 0x04, 0x30, 0x60,
  0x8c, 0x08, 0x40, 0x00, 0x40, 0x04, 0x70, 0x00, 0x00, 0x00, 0x40, 0x00,
  0x40, 0x04, 0xf0, 0x7f, 0x00, 0x00, 0x40, 0x00, 0x40, 0x04, 0xe0, 0xff,
  0x7f, 0x00, 0x40, 0x00, 0x40, 0x04, 0x00, 0xfc, 0x6f, 0x00, 0x40, 0x00,
  0x40, 0x04, 0x00, 0x00, 0x63, 0x00, 0x40, 0x00, 0x40, 0x08, 0x00, 0xf0,
  0x7f, 0x00, 0x20, 0x00, 0x80, 0x08, 0x00, 0x00, 0x63, 0x00, 0x20, 0x00,
  0x80, 0x08, 0x00, 0xf0, 0x7f, 0x00, 0x20, 0x00, 0x80, 0x08, 0x00, 0x00,
  0x63, 0x00, 0x20, 0x00, 0x80, 0x08, 0x00, 0xe0, 0x7f, 0x00, 0x20, 0x00,
  0x80, 0x08, 0x00, 0xf0, 0x5f, 0x00, 0x20, 0x00, 0x80, 0x10, 0x00, 0x00,
  0x00, 0x00, 0x10, 0x00, 0x80, 0x10, 0x00, 0x00, 0x00, 0x00, 0x10, 0x00,
  0x00, 0x11, 0x00, 0x00, 0x40, 0x00, 0x10, 0x00, 0x00, 0x11, 0x00, 0x00,
  0x62, 0x00, 0x10, 0x00, 0x00, 0x11, 0xe0, 0xff, 0xe3, 0x00, 0x10, 0x00,
  0x00, 0x11, 0xe0, 0xff, 0xe1, 0x04, 0x10, 0x00, 0x00, 0x11, 0x40, 0x1c,
  0x60, 0x06, 0x10, 0x00, 0x00, 0x21, 0x00, 0x98, 0x61, 0x07, 0x08, 0x00,
  0x00, 0x22, 0x00, 0xff, 0xe0, 0x03, 0x08, 0x00, 0x00, 0x22, 0x80, 0x3f,
  0xe0, 0x01, 0x08, 0x00, 0x00, 0x22, 0x00, 0xd8, 0xe1, 0x00, 0x08, 0x00,
  0x00, 0x22, 0x00, 0xff, 0xe0, 0x00, 0x08, 0x00, 0x00, 0x24, 0x80, 0x3f,
  0x60, 0x00, 0x08, 0x00, 0x00, 0x28, 0x00, 0x98, 0x61, 0x0e, 0x08, 0x00,
  0x00, 0x48, 0x00, 0xfe, 0xf8, 0x07, 0x04, 0x00, 0x00, 0x50, 0x00, 0xff,
  0xf0, 0x03, 0x04, 0x00, 0x00, 0x50, 0x00, 0x18, 0x60, 0x00, 0x04, 0x00,
  0x00, 0x60, 0x00, 0x18, 0x60, 0x00, 0x04, 0x00, 0x00, 0xc0, 0x00, 0x18,
  0x20, 0x00, 0x06, 0x00, 0x00, 0x00, 0x07, 0x08, 0x00, 0xc0, 0x01, 0x00,
  0x00, 0x00, 0x38, 0x00, 0x00, 0x38, 0x00, 0x00, 0x00, 0x00, 0xc0, 0x01,
  0x00, 0x07, 0x00, 0x00, 0x00, 0x00, 0x00, 0x0e, 0xe0, 0x00, 0x00, 0x00,
  0x00, 0x00, 0x00, 0x70, 0x1c, 0x00, 0x00, 0x00, 0x00, 0x00, 0x00, 0x80,
  0x03, 0x00, 0x00, 0x00, 0x00, 0x00, 0x00, 0x00, 0x01, 0x00, 0x00, 0x00,
  0x00, 0x00, 0x00, 0x00, 0x00, 0x00, 0x00, 0x00, 0x00, 0x00, 0x00, 0x00,
  0x00, 0x00, 0x00, 0x00, 0x00, 0x00, 0x00, 0x00, 0x00, 0x00, 0x00, 0x00,
  0x00, 0x00, 0x00, 0x00, 0x00, 0x00, 0x00, 0x00, 0x00, 0x00, 0x00, 0x00,
  0x00, 0x00, 0x00, 0x00, 0x00, 0x00, 0x00, 0x00, 0x00, 0x00, 0x00, 0x00,
  0x00, 0x00, 0x00, 0x00, 0x00, 0x00, 0x00, 0x00, };
