#define lancePR_l_width 64
#define lancePR_l_height 64
static unsigned char lancePR_l_bits[] = {
  0x00, 0x00, 0x00, 0x00, 0x00, 0x00, 0x00, 0x00, 0x00, 0x00, 0x00, 0x00,
  0x00, 0x00, 0x00, 0x00, 0x00, 0x00, 0x00, 0x00, 0x00, 0x00, 0x00, 0x00,
  0xf8, 0xff, 0xff, 0xff, 0xff, 0xff, 0x3f, 0x00, 0x18, 0x00, 0x00, 0x00,
  0x00, 0x00, 0x40, 0x00, 0x28, 0x00, 0x00, 0x00, 0x00, 0x00, 0x80, 0x00,
  0x48, 0x00, 0x00, 0x00, 0x00, 0x00, 0x00, 0x01, 0x90, 0xff, 0xff, 0xff,
  0xff, 0xff, 0xff, 0x01, 0x10, 0x01, 0x00, 0x00, 0x00, 0x00, 0x00, 0x01,
  0x10, 0x01, 0x00, 0x00, 0x00, 0x00, 0x00, 0x01, 0x10, 0x01, 0x00, 0x00,
  0x00, 0x00, 0x00, 0x01, 0x10, 0x02, 0x00, 0x00, 0x00, 0x00, 0x80, 0x00,
  0x10, 0x02, 0x00, 0x00, 0x00, 0x00, 0x80, 0x00, 0x20, 0x02, 0x00, 0x00,
  0x00, 0x00, 0x80, 0x00, 0x20, 0x02, 0x00, 0x00, 0x00, 0x00, 0x80, 0x00,
  0x20, 0x02, 0x00, 0x00, 0x00, 0x00, 0x80, 0x00, 0x20, 0x02, 0x00, 0xc0,
  0x0f, 0x00, 0x80, 0x00, 0x20, 0x02, 0x00, 0xf0, 0x1f, 0x00, 0x80, 0x00,
  0x20, 0x04, 0x00, 0xf0, 0x1f, 0x00, 0x40, 0x00, 0x20, 0x04, 0x00, 0x60,
  0x38, 0x00, 0x40, 0x00, 0x40, 0x04, 0x00, 0x00, 0x30, 0x00, 0x40, 0x00,
  0x40, 0x04, 0x00, 0x00, 0x30, 0x00, 0x40, 0x00, 0x40, 0x04, 0x00, 0x00,
  0x18, 0x00, 0x40, 0x00, 0x40, 0x04, 0x00, 0x00, 0x1c, 0x00, 0x40, 0x00,
  0x40, 0x04, 0x00, 0x00, 0x3e, 0x00, 0x40, 0x00, 0x40, 0x08, 0x00, 0x80,
  0x7f, 0x00, 0x20, 0x00, 0x80, 0x08, 0x00, 0xe0, 0xff, 0x00, 0x20, 0x00,
  0x80, 0x08, 0x00, 0xe0, 0xe7, 0x00, 0x20, 0x00, 0x80, 0x08, 0x00, 0x00,
  0xe7, 0x00, 0x20, 0x00, 0x80, 0x08, 0x00, 0x00, 0xe3, 0x01, 0x20, 0x00,
  0x80, 0x08, 0x00, 0x3f, 0xe3, 0x01, 0x20, 0x00, 0x80, 0x10, 0x80, 0x1f,
  0xc3, 0x00, 0x10, 0x00, 0x80, 0x10, 0xc0, 0x07, 0x03, 0x1c, 0x10, 0x00,
  0x00, 0x11, 0xc0, 0x03, 0x03, 0x1e, 0x10, 0x00, 0x00, 0x11, 0xc0, 0xff,
  0xbf, 0x1f, 0x10, 0x00, 0x00, 0x11, 0x80, 0xff, 0x7f, 0x0f, 0x10, 0x00,
  0x00, 0x11, 0x00, 0x1f, 0x03, 0x07, 0x10, 0x00, 0x00, 0x11, 0x00, 0x00,
  0xbb, 0x03, 0x10, 0x00, 0x00, 0x21, 0x00, 0xe0, 0x1f, 0x00, 0x08, 0x00,
  0x00, 0x22, 0x00, 0xf0, 0x1f, 0x00, 0x08, 0x00, 0x00, 0x22, 0x00, 0x00,
  0x0e, 0x00, 0x08, 0x00, 0x00, 0x22, 0x00, 0x80, 0x07, 0x00, 0x08, 0x00,
  0x00, 0x22, 0x00, 0x80, 0x07, 0x00, 0x08, 0x00, 0x00, 0x24, 0x00, 0x80,
  0x03, 0x00, 0x08, 0x00, 0x00, 0x28, 0x00, 0x80, 0x01, 0x00, 0x08, 0x00,
  0x00, 0x48, 0x00, 0x80, 0x07, 0x00, 0x04, 0x00, 0x00, 0x50, 0x00, 0x00,
  0x06, 0x00, 0x04, 0x00, 0x00, 0x50, 0x00, 0x00, 0x00, 0x00, 0x04, 0x00,
  0x00, 0x60, 0x00, 0x00, 0x00, 0x00, 0x04, 0x00, 0x00, 0xc0, 0x00, 0x00,
  0x00, 0x00, 0x06, 0x00, 0x00, 0x00, 0x07, 0x00, 0x00, 0xc0, 0x01, 0x00,
  0x00, 0x00, 0x38, 0x00, 0x00, 0x38, 0x00, 0x00, 0x00, 0x00, 0xc0, 0x01,
  0x00, 0x07, 0x00, 0x00, 0x00, 0x00, 0x00, 0x0e, 0xe0, 0x00, 0x00, 0x00,
  0x00, 0x00, 0x00, 0x70, 0x1c, 0x00, 0x00, 0x00, 0x00, 0x00, 0x00, 0x80,
  0x03, 0x00, 0x00, 0x00, 0x00, 0x00, 0x00, 0x00, 0x01, 0x00, 0x00, 0x00,
  0x00, 0x00, 0x00, 0x00, 0x00, 0x00, 0x00, 0x00, 0x00, 0x00, 0x00, 0x00,
  0x00, 0x00, 0x00, 0x00, 0x00, 0x00, 0x00, 0x00, 0x00, 0x00, 0x00, 0x00,
  0x00, 0x00, 0x00, 0x00, 0x00, 0x00, 0x00, 0x00, 0x00, 0x00, 0x00, 0x00,
  0x00, 0x00, 0x00, 0x00, 0x00, 0x00, 0x00, 0x00, 0x00, 0x00, 0x00, 0x00,
  0x00, 0x00, 0x00, 0x00, 0x00, 0x00, 0x00, 0x00, };
