#define lance_l_width 64
#define lance_l_height 64
static char lance_l_bits[] = {
 0x00,0x00,0x00,0x00,0x00,0x00,0x00,0x00,0x00,0x00,0x00,0x00,0x00,0x00,0x00,
 0x00,0x00,0x00,0x00,0x00,0x00,0x00,0x00,0x00,0x00,0x00,0x00,0x00,0x00,0x00,
 0x00,0x00,0x00,0x00,0x00,0x00,0x00,0x00,0x00,0x00,0x00,0x00,0x00,0xf0,0x01,
 0x00,0x00,0x00,0x00,0x00,0x00,0x4f,0x0e,0x00,0x00,0x00,0x00,0x00,0xf0,0x80,
 0x70,0x00,0x00,0x00,0x00,0x00,0x0f,0xc0,0x81,0x03,0x00,0x00,0x00,0xf0,0x00,
 0x38,0x0e,0x1c,0x00,0x00,0x00,0x08,0x00,0x07,0x70,0x60,0x00,0x00,0x00,0x0c,
 0xe0,0x00,0x80,0x83,0x00,0x00,0x00,0x14,0x1c,0x00,0x00,0x1c,0x01,0x00,0x00,
 0x94,0x03,0x00,0x03,0xe0,0x01,0x00,0x00,0x64,0x00,0x80,0x03,0x00,0x03,0x00,
 0x00,0x22,0x00,0xc0,0x01,0x00,0x02,0x00,0x00,0x22,0x00,0x60,0x00,0x00,0x02,
 0x00,0x00,0x22,0x00,0x80,0x00,0x00,0x02,0x00,0x00,0x22,0x00,0x9c,0x0c,0x00,
 0x02,0x00,0x00,0x12,0x00,0xf8,0x0f,0x00,0x04,0x00,0x00,0x12,0x00,0x80,0x01,
 0x00,0x04,0x00,0x00,0x11,0x00,0xb8,0x1d,0x00,0x04,0x00,0x00,0x11,0x00,0x98,
 0x38,0x00,0x04,0x00,0x00,0x11,0x00,0xcc,0x30,0x00,0x04,0x00,0x00,0x11,0x00,
 0x00,0x00,0x00,0x04,0x00,0x00,0x11,0x00,0xf8,0x0f,0x00,0x04,0x00,0x00,0x09,
 0x00,0x18,0x18,0x00,0x08,0x00,0x80,0x08,0x00,0xf8,0x1f,0x00,0x08,0x00,0x80,
 0x08,0x00,0x10,0x0f,0x00,0x08,0x00,0x80,0x08,0x00,0x30,0x04,0x00,0x08,0x00,
 0x80,0x08,0x00,0xe0,0x07,0x00,0x08,0x00,0x80,0x08,0x00,0x00,0x00,0x00,0x08,
 0x00,0x80,0x08,0x00,0x80,0x00,0x00,0x08,0x00,0x40,0x04,0x00,0xfc,0x00,0x00,
 0x10,0x00,0x40,0x04,0x00,0xf8,0x1f,0x00,0x10,0x00,0x40,0x04,0x00,0xc0,0x00,
 0x00,0x10,0x00,0x40,0x04,0x80,0xfe,0xff,0x00,0x10,0x00,0x40,0x04,0x80,0x83,
 0xe0,0x00,0x10,0x00,0x40,0x04,0x80,0x83,0xc0,0x00,0x10,0x00,0x20,0x02,0x00,
 0xff,0xff,0x00,0x20,0x00,0x20,0x02,0x00,0x87,0x60,0x00,0x20,0x00,0x20,0x02,
 0x00,0x86,0x3c,0x00,0x20,0x00,0x20,0x02,0x00,0xfe,0x3f,0x00,0x20,0x00,0x20,
 0x02,0x20,0x80,0x00,0x00,0x20,0x00,0x20,0x02,0xe0,0xfc,0xff,0x01,0x20,0x00,
 0x10,0x02,0xc0,0xff,0xff,0x03,0x20,0x00,0x10,0x01,0x00,0x80,0x00,0x00,0x40,
 0x00,0x10,0x01,0x00,0x80,0x00,0x00,0x40,0x00,0x10,0x01,0x00,0x80,0x00,0x00,
 0x40,0x00,0x10,0x01,0x00,0x00,0x00,0x00,0x40,0x00,0x20,0x01,0x00,0x00,0x00,
 0x00,0x40,0x00,0x20,0x01,0x00,0x00,0x00,0x00,0x40,0x00,0x20,0x01,0x00,0x00,
 0x00,0x00,0x40,0x00,0xa0,0x00,0x00,0x00,0x00,0x00,0x80,0x00,0xc0,0x00,0x00,
 0x00,0x00,0x00,0x80,0x00,0xc0,0x00,0x00,0x00,0x00,0x00,0xc0,0x00,0x80,0xff,
 0xff,0xff,0xff,0xff,0x7f,0x00,0x00,0x00,0x00,0x00,0x00,0x00,0x00,0x00,0x00,
 0x00,0x00,0x00,0x00,0x00,0x00,0x00,0x00,0x00,0x00,0x00,0x00,0x00,0x00,0x00,
 0x00,0x00,0x00,0x00,0x00,0x00,0x00,0x00,0x00,0x00,0x00,0x00,0x00,0x00,0x00,
 0x00,0x00,0x00,0x00,0x00,0x00,0x00,0x00,0x00,0x00,0x00,0x00,0x00,0x00,0x00,
 0x00,0x00};
