#define pawnR_l_width 64
#define pawnR_l_height 64
static unsigned char pawnR_l_bits[] = {
  0x00, 0x00, 0x00, 0x00, 0x00, 0x00, 0x00, 0x00, 0x00, 0x00, 0x00, 0x00,
  0x00, 0x00, 0x00, 0x00, 0x00, 0x00, 0x00, 0x00, 0x00, 0x00, 0x00, 0x00,
  0xf8, 0xff, 0xff, 0xff, 0xff, 0xff, 0x3f, 0x00, 0x18, 0x00, 0x00, 0x00,
  0x00, 0x00, 0x40, 0x00, 0x28, 0x00, 0x00, 0x00, 0x00, 0x00, 0x80, 0x00,
  0x48, 0x00, 0x00, 0x00, 0x00, 0x00, 0x00, 0x01, 0x90, 0xff, 0xff, 0xff,
  0xff, 0xff, 0xff, 0x01, 0x10, 0x01, 0x00, 0x00, 0x00, 0x00, 0x00, 0x01,
  0x10, 0x01, 0x00, 0x00, 0x00, 0x00, 0x00, 0x01, 0x10, 0x01, 0x00, 0x00,
  0x00, 0x00, 0x00, 0x01, 0x10, 0x02, 0x00, 0x00, 0x00, 0x00, 0x80, 0x00,
  0x10, 0x02, 0x00, 0x00, 0x00, 0x00, 0x80, 0x00, 0x20, 0x02, 0x00, 0x00,
  0x00, 0x00, 0x80, 0x00, 0x20, 0x02, 0x00, 0x00, 0x00, 0x00, 0x80, 0x00,
  0x20, 0x02, 0x00, 0x00, 0x00, 0x00, 0x80, 0x00, 0x20, 0x02, 0x00, 0x06,
  0x00, 0x00, 0x80, 0x00, 0x20, 0x02, 0x00, 0x0e, 0x80, 0x03, 0x80, 0x00,
  0x20, 0x04, 0x00, 0x1e, 0xc0, 0x00, 0x40, 0x00, 0x20, 0x04, 0x00, 0x38,
  0xf0, 0x00, 0x40, 0x00, 0x40, 0x04, 0x00, 0x30, 0x70, 0x04, 0x40, 0x00,
  0x40, 0x04, 0x00, 0x20, 0x00, 0x0f, 0x40, 0x00, 0x40, 0x04, 0x00, 0xc0,
  0xff, 0x07, 0x40, 0x00, 0x40, 0x04, 0xc0, 0xff, 0xff, 0x01, 0x40, 0x00,
  0x40, 0x04, 0x00, 0x7f, 0x30, 0x00, 0x40, 0x00, 0x40, 0x08, 0x00, 0x60,
  0x60, 0x00, 0x20, 0x00, 0x80, 0x08, 0x00, 0xe0, 0xff, 0x01, 0x20, 0x00,
  0x80, 0x08, 0x00, 0xf0, 0xef, 0x00, 0x20, 0x00, 0x80, 0x08, 0x00, 0xf8,
  0x70, 0x00, 0x20, 0x00, 0x80, 0x08, 0x00, 0x00, 0x30, 0x00, 0x20, 0x00,
  0x80, 0x08, 0x00, 0x00, 0x18, 0x00, 0x20, 0x00, 0x80, 0x10, 0x00, 0x80,
  0x00, 0x00, 0x10, 0x00, 0x80, 0x10, 0x00, 0x60, 0x00, 0x00, 0x10, 0x00,
  0x00, 0x11, 0x00, 0x38, 0xe0, 0x01, 0x10, 0x00, 0x00, 0x11, 0x00, 0x1e,
  0xfe, 0x00, 0x10, 0x00, 0x00, 0x11, 0x00, 0xcc, 0x1f, 0x00, 0x10, 0x00,
  0x00, 0x11, 0x00, 0xf0, 0x03, 0x00, 0x10, 0x00, 0x00, 0x11, 0x00, 0x38,
  0x03, 0x00, 0x10, 0x00, 0x00, 0x21, 0x00, 0x0e, 0x03, 0x01, 0x08, 0x00,
  0x00, 0x22, 0x00, 0x07, 0xf3, 0x01, 0x08, 0x00, 0x00, 0x22, 0x00, 0x07,
  0xff, 0x00, 0x08, 0x00, 0x00, 0x22, 0x00, 0xfe, 0x6f, 0x00, 0x08, 0x00,
  0x00, 0x22, 0x00, 0xfc, 0x23, 0x00, 0x08, 0x00, 0x00, 0x24, 0x00, 0x00,
  0xc1, 0x07, 0x08, 0x00, 0x00, 0x28, 0x00, 0x00, 0xff, 0x03, 0x08, 0x00,
  0x00, 0x48, 0x00, 0xfe, 0x9f, 0x01, 0x04, 0x00, 0x00, 0x50, 0x00, 0xff,
  0xc3, 0x00, 0x04, 0x00, 0x00, 0x50, 0x00, 0x00, 0x61, 0x00, 0x04, 0x00,
  0x00, 0x60, 0x00, 0x78, 0x23, 0x00, 0x04, 0x00, 0x00, 0xc0, 0x00, 0x3c,
  0x03, 0x00, 0x06, 0x00, 0x00, 0x00, 0x07, 0x0c, 0x01, 0xc0, 0x01, 0x00,
  0x00, 0x00, 0x38, 0x00, 0x00, 0x38, 0x00, 0x00, 0x00, 0x00, 0xc0, 0x01,
  0x00, 0x07, 0x00, 0x00, 0x00, 0x00, 0x00, 0x0e, 0xe0, 0x00, 0x00, 0x00,
  0x00, 0x00, 0x00, 0x70, 0x1c, 0x00, 0x00, 0x00, 0x00, 0x00, 0x00, 0x80,
  0x03, 0x00, 0x00, 0x00, 0x00, 0x00, 0x00, 0x00, 0x01, 0x00, 0x00, 0x00,
  0x00, 0x00, 0x00, 0x00, 0x00, 0x00, 0x00, 0x00, 0x00, 0x00, 0x00, 0x00,
  0x00, 0x00, 0x00, 0x00, 0x00, 0x00, 0x00, 0x00, 0x00, 0x00, 0x00, 0x00,
  0x00, 0x00, 0x00, 0x00, 0x00, 0x00, 0x00, 0x00, 0x00, 0x00, 0x00, 0x00,
  0x00, 0x00, 0x00, 0x00, 0x00, 0x00, 0x00, 0x00, 0x00, 0x00, 0x00, 0x00,
  0x00, 0x00, 0x00, 0x00, 0x00, 0x00, 0x00, 0x00, };
