#define rook_l_width 64
#define rook_l_height 64
static unsigned char rook_l_bits[] = {
  0x00, 0x00, 0x00, 0x00, 0x00, 0x00, 0x00, 0x00, 0x00, 0x00, 0x00, 0x00,
  0x00, 0x00, 0x00, 0x00, 0x00, 0x00, 0x00, 0xf0, 0x03, 0x00, 0x00, 0x00,
  0x00, 0x00, 0x00, 0x8e, 0x3c, 0x00, 0x00, 0x00, 0x00, 0x00, 0xe0, 0x81,
  0xc0, 0x03, 0x00, 0x00, 0x00, 0x00, 0x1e, 0x00, 0x01, 0x3c, 0x00, 0x00,
  0x00, 0xe0, 0x01, 0xc0, 0x01, 0xc0, 0x03, 0x00, 0x00, 0x1c, 0x00, 0x3c,
  0x1e, 0x00, 0x1c, 0x00, 0x00, 0x04, 0xc0, 0x03, 0xe0, 0x01, 0x10, 0x00,
  0x00, 0x06, 0x38, 0x00, 0x00, 0x0e, 0x60, 0x00, 0x00, 0x8a, 0x07, 0x00,
  0x00, 0xf0, 0x40, 0x00, 0x00, 0x7a, 0x00, 0x00, 0x00, 0x00, 0x4f, 0x00,
  0x00, 0x12, 0x00, 0x00, 0x07, 0x00, 0x70, 0x00, 0x00, 0x12, 0x00, 0xf0,
  0xc7, 0x00, 0x80, 0x00, 0x00, 0x11, 0x00, 0xfe, 0x77, 0x00, 0x80, 0x00,
  0x00, 0x11, 0x00, 0x03, 0x3c, 0x00, 0x80, 0x00, 0x00, 0x09, 0x00, 0x20,
  0x6c, 0x00, 0x80, 0x00, 0x00, 0x09, 0x00, 0x60, 0xcc, 0x05, 0x80, 0x00,
  0x00, 0x09, 0xe0, 0x67, 0x88, 0x0d, 0x80, 0x00, 0x00, 0x09, 0xf0, 0x67,
  0x18, 0x0c, 0x80, 0x00, 0x00, 0x09, 0x10, 0xe6, 0xfb, 0x0f, 0x00, 0x01,
  0x80, 0x08, 0x00, 0xf6, 0xf7, 0x07, 0x00, 0x01, 0x80, 0x08, 0xb8, 0xff,
  0x06, 0x00, 0x00, 0x01, 0x80, 0x04, 0xf0, 0x6f, 0x8c, 0x01, 0x00, 0x01,
  0x80, 0x04, 0x00, 0x62, 0xcc, 0x00, 0x00, 0x01, 0x80, 0x04, 0x00, 0x63,
  0x7c, 0x08, 0x00, 0x01, 0x80, 0x04, 0x00, 0x63, 0xec, 0x0c, 0x00, 0x01,
  0x80, 0x04, 0x80, 0x65, 0x8c, 0x09, 0x00, 0x02, 0x40, 0x04, 0xc0, 0x78,
  0x18, 0x08, 0x00, 0x02, 0x40, 0x02, 0x70, 0x30, 0xf0, 0x0f, 0x00, 0x02,
  0x40, 0x02, 0x00, 0x00, 0xe0, 0x07, 0x00, 0x02, 0x40, 0x02, 0x00, 0x00,
  0x00, 0x00, 0x00, 0x02, 0x40, 0x02, 0x00, 0x80, 0x00, 0x00, 0x00, 0x02,
  0x40, 0x02, 0x00, 0xfc, 0x0f, 0x00, 0x00, 0x04, 0x20, 0x02, 0x00, 0xf8,
  0x1f, 0x00, 0x00, 0x04, 0x20, 0x02, 0x00, 0xc0, 0x00, 0x00, 0x00, 0x04,
  0x20, 0x01, 0x80, 0xfe, 0xff, 0x00, 0x00, 0x04, 0x20, 0x01, 0x80, 0x83,
  0xe0, 0x00, 0x00, 0x04, 0x20, 0x01, 0x80, 0x83, 0xc0, 0x00, 0x00, 0x04,
  0x20, 0x01, 0x00, 0xff, 0x7f, 0x00, 0x00, 0x08, 0x20, 0x01, 0x00, 0xc7,
  0x60, 0x00, 0x00, 0x08, 0x10, 0x01, 0x00, 0xc6, 0x3c, 0x00, 0x00, 0x08,
  0x10, 0x01, 0x00, 0xfe, 0x3f, 0x00, 0x00, 0x08, 0x90, 0x00, 0x20, 0xc0,
  0x00, 0x00, 0x00, 0x08, 0x90, 0x00, 0xe0, 0xfc, 0xff, 0x01, 0x00, 0x08,
  0x90, 0x00, 0xc0, 0xff, 0xff, 0x03, 0x00, 0x10, 0x90, 0x00, 0x00, 0xc0,
  0x00, 0x00, 0x00, 0x10, 0x90, 0x00, 0x00, 0xc0, 0x00, 0x00, 0x00, 0x10,
  0x88, 0x00, 0x00, 0x80, 0x00, 0x00, 0x00, 0x10, 0x48, 0x00, 0x00, 0x00,
  0x00, 0x00, 0x00, 0x10, 0x48, 0x00, 0x00, 0x00, 0x00, 0x00, 0x00, 0x10,
  0x48, 0x00, 0x00, 0x00, 0x00, 0x00, 0x00, 0x20, 0x48, 0x00, 0x00, 0x00,
  0x00, 0x00, 0x00, 0x20, 0x48, 0x00, 0x00, 0x00, 0x00, 0x00, 0x00, 0x20,
  0x48, 0x00, 0x00, 0x00, 0x00, 0x00, 0x00, 0x20, 0x44, 0x00, 0x00, 0x00,
  0x00, 0x00, 0x00, 0x20, 0x24, 0x00, 0x00, 0x00, 0x00, 0x00, 0x00, 0x20,
  0x24, 0x00, 0x00, 0x00, 0x00, 0x00, 0x00, 0x40, 0x24, 0x00, 0x00, 0x00,
  0x00, 0x00, 0x00, 0x40, 0x28, 0x00, 0x00, 0x00, 0x00, 0x00, 0x00, 0x40,
  0x30, 0x00, 0x00, 0x00, 0x00, 0x00, 0x00, 0x40, 0x30, 0x00, 0x00, 0x00,
  0x00, 0x00, 0x00, 0x60, 0xe0, 0xff, 0xff, 0xff, 0xff, 0xff, 0xff, 0x3f,
  0x00, 0x00, 0x00, 0x00, 0x00, 0x00, 0x00, 0x00, };
