#define silver_l_width 64
#define silver_l_height 64
static unsigned char silver_l_bits[] = {
  0x00, 0x00, 0x00, 0x00, 0x00, 0x00, 0x00, 0x00, 0x00, 0x00, 0x00, 0x00,
  0x00, 0x00, 0x00, 0x00, 0x00, 0x00, 0x00, 0xf0, 0x03, 0x00, 0x00, 0x00,
  0x00, 0x00, 0x00, 0x8e, 0x3c, 0x00, 0x00, 0x00, 0x00, 0x00, 0xe0, 0x81,
  0xc0, 0x03, 0x00, 0x00, 0x00, 0x00, 0x1e, 0x00, 0x01, 0x3c, 0x00, 0x00,
  0x00, 0xe0, 0x01, 0xc0, 0x01, 0xc0, 0x03, 0x00, 0x00, 0x1c, 0x00, 0x3c,
  0x1e, 0x00, 0x1c, 0x00, 0x00, 0x04, 0xc0, 0x03, 0xe0, 0x01, 0x10, 0x00,
  0x00, 0x06, 0x38, 0x00, 0x00, 0x0e, 0x60, 0x00, 0x00, 0x8a, 0x07, 0x00,
  0x00, 0xf0, 0x40, 0x00, 0x00, 0x7a, 0x00, 0x00, 0x00, 0x00, 0x4f, 0x00,
  0x00, 0x12, 0x00, 0x02, 0x02, 0x00, 0x70, 0x00, 0x00, 0x12, 0x00, 0x03,
  0x3b, 0x00, 0x80, 0x00, 0x00, 0x11, 0x80, 0x07, 0x7f, 0x00, 0x80, 0x00,
  0x00, 0x11, 0xc0, 0x0c, 0x43, 0x00, 0x80, 0x00, 0x00, 0x09, 0x60, 0x18,
  0x7b, 0x00, 0x80, 0x00, 0x00, 0x09, 0x30, 0x00, 0x4f, 0x00, 0x80, 0x00,
  0x00, 0x09, 0x80, 0x0f, 0x62, 0x00, 0x80, 0x00, 0x00, 0x09, 0xc0, 0x03,
  0x3e, 0x06, 0x80, 0x00, 0x00, 0x09, 0x00, 0x1a, 0x1e, 0x06, 0x00, 0x01,
  0x80, 0x08, 0xc0, 0x07, 0x32, 0x03, 0x00, 0x01, 0x80, 0x08, 0x00, 0x1a,
  0xe2, 0x00, 0x00, 0x01, 0x80, 0x04, 0xe0, 0x07, 0xeb, 0x00, 0x00, 0x01,
  0x80, 0x04, 0x00, 0x32, 0xcf, 0x00, 0x00, 0x01, 0x80, 0x04, 0xe0, 0x1f,
  0xc7, 0x01, 0x00, 0x01, 0x80, 0x04, 0xf0, 0x0f, 0x81, 0x03, 0x00, 0x01,
  0x80, 0x04, 0x00, 0x00, 0x00, 0x00, 0x00, 0x02, 0x40, 0x04, 0x00, 0x04,
  0x10, 0x00, 0x00, 0x02, 0x40, 0x02, 0x00, 0x06, 0x18, 0x00, 0x00, 0x02,
  0x40, 0x02, 0x80, 0x06, 0x1e, 0x00, 0x00, 0x02, 0x40, 0x02, 0x80, 0xc6,
  0x07, 0x00, 0x00, 0x02, 0x40, 0x02, 0xc0, 0x86, 0x03, 0x00, 0x00, 0x02,
  0x40, 0x02, 0xc0, 0x04, 0x3a, 0x00, 0x00, 0x04, 0x20, 0x02, 0x60, 0x0f,
  0x7e, 0x00, 0x00, 0x04, 0x20, 0x02, 0xe0, 0xdf, 0x66, 0x00, 0x00, 0x04,
  0x20, 0x01, 0x20, 0xde, 0x60, 0x00, 0x00, 0x04, 0x20, 0x01, 0x00, 0x94,
  0x38, 0x00, 0x00, 0x04, 0x20, 0x01, 0xf0, 0x05, 0x3e, 0x00, 0x00, 0x04,
  0x20, 0x01, 0xf8, 0x04, 0x06, 0x00, 0x00, 0x08, 0x20, 0x01, 0x20, 0x06,
  0x60, 0x00, 0x00, 0x08, 0x10, 0x01, 0x30, 0xc6, 0xff, 0x0f, 0x00, 0x08,
  0x10, 0x01, 0x30, 0xc6, 0xe7, 0x07, 0x00, 0x08, 0x90, 0x00, 0x38, 0x06,
  0x64, 0x00, 0x00, 0x08, 0x90, 0x00, 0x18, 0x06, 0xc6, 0x00, 0x00, 0x08,
  0x90, 0x00, 0xc0, 0x06, 0xc7, 0x00, 0x00, 0x10, 0x90, 0x00, 0x80, 0x07,
  0xc3, 0x00, 0x00, 0x10, 0x90, 0x00, 0x80, 0x03, 0xd0, 0x00, 0x00, 0x10,
  0x88, 0x00, 0x00, 0x01, 0xf0, 0x00, 0x00, 0x10, 0x48, 0x00, 0x00, 0x00,
  0x60, 0x00, 0x00, 0x10, 0x48, 0x00, 0x00, 0x00, 0x00, 0x00, 0x00, 0x10,
  0x48, 0x00, 0x00, 0x00, 0x00, 0x00, 0x00, 0x20, 0x48, 0x00, 0x00, 0x00,
  0x00, 0x00, 0x00, 0x20, 0x48, 0x00, 0x00, 0x00, 0x00, 0x00, 0x00, 0x20,
  0x48, 0x00, 0x00, 0x00, 0x00, 0x00, 0x00, 0x20, 0x44, 0x00, 0x00, 0x00,
  0x00, 0x00, 0x00, 0x20, 0x24, 0x00, 0x00, 0x00, 0x00, 0x00, 0x00, 0x20,
  0x24, 0x00, 0x00, 0x00, 0x00, 0x00, 0x00, 0x40, 0x24, 0x00, 0x00, 0x00,
  0x00, 0x00, 0x00, 0x40, 0x28, 0x00, 0x00, 0x00, 0x00, 0x00, 0x00, 0x40,
  0x30, 0x00, 0x00, 0x00, 0x00, 0x00, 0x00, 0x40, 0x30, 0x00, 0x00, 0x00,
  0x00, 0x00, 0x00, 0x60, 0xe0, 0xff, 0xff, 0xff, 0xff, 0xff, 0xff, 0x3f,
  0x00, 0x00, 0x00, 0x00, 0x00, 0x00, 0x00, 0x00, };
