#define silverR_l_width 64
#define silverR_l_height 64
static unsigned char silverR_l_bits[] = {
  0x00, 0x00, 0x00, 0x00, 0x00, 0x00, 0x00, 0x00, 0x00, 0x00, 0x00, 0x00,
  0x00, 0x00, 0x00, 0x00, 0xfe, 0xff, 0xff, 0xff, 0xff, 0xff, 0xff, 0x07,
  0x06, 0x00, 0x00, 0x00, 0x00, 0x00, 0x00, 0x08, 0x0a, 0x00, 0x00, 0x00,
  0x00, 0x00, 0x00, 0x10, 0x12, 0x00, 0x00, 0x00, 0x00, 0x00, 0x00, 0x20,
  0xe4, 0xff, 0xff, 0xff, 0xff, 0xff, 0xff, 0x7f, 0x24, 0x00, 0x00, 0x00,
  0x00, 0x00, 0x00, 0x40, 0x24, 0x00, 0x00, 0x00, 0x00, 0x00, 0x00, 0x40,
  0x24, 0x00, 0x00, 0x00, 0x00, 0x00, 0x00, 0x40, 0x24, 0x00, 0x00, 0x00,
  0x00, 0x00, 0x00, 0x40, 0x24, 0x00, 0x00, 0x00, 0x00, 0x00, 0x00, 0x40,
  0x24, 0x00, 0x00, 0x00, 0x00, 0x00, 0x00, 0x20, 0x44, 0x00, 0x00, 0x00,
  0x00, 0x00, 0x00, 0x20, 0x48, 0x00, 0x00, 0x06, 0x00, 0x00, 0x00, 0x20,
  0x48, 0x00, 0x00, 0x0f, 0x80, 0x00, 0x00, 0x20, 0x48, 0x00, 0x00, 0x0b,
  0xc0, 0x01, 0x00, 0x20, 0x48, 0x00, 0x00, 0xc3, 0xe0, 0x01, 0x00, 0x20,
  0x48, 0x00, 0x00, 0xe3, 0x60, 0x03, 0x00, 0x10, 0x48, 0x00, 0x00, 0x63,
  0x60, 0x18, 0x00, 0x10, 0x88, 0x00, 0x00, 0x26, 0x60, 0x1c, 0x00, 0x10,
  0x90, 0x00, 0xe0, 0xe7, 0x63, 0x0c, 0x00, 0x10, 0x90, 0x00, 0xf0, 0xff,
  0x63, 0x0c, 0x00, 0x10, 0x90, 0x00, 0x00, 0x06, 0x60, 0x04, 0x00, 0x10,
  0x90, 0x00, 0x00, 0x60, 0x20, 0x1f, 0x00, 0x08, 0x90, 0x00, 0x00, 0x7c,
  0xa0, 0x0f, 0x00, 0x08, 0x10, 0x01, 0x00, 0x1c, 0x29, 0x00, 0x00, 0x08,
  0x10, 0x01, 0x00, 0x06, 0x7b, 0x04, 0x00, 0x08, 0x20, 0x01, 0x00, 0x66,
  0xfb, 0x07, 0x00, 0x08, 0x20, 0x01, 0x00, 0x7e, 0xf0, 0x06, 0x00, 0x08,
  0x20, 0x01, 0x00, 0x5c, 0x20, 0x03, 0x00, 0x04, 0x20, 0x01, 0x00, 0xc0,
  0x61, 0x03, 0x00, 0x04, 0x20, 0x01, 0x00, 0xe0, 0x63, 0x01, 0x00, 0x04,
  0x20, 0x02, 0x00, 0x78, 0x60, 0x01, 0x00, 0x04, 0x20, 0x02, 0x00, 0x18,
  0x60, 0x00, 0x00, 0x04, 0x40, 0x02, 0x00, 0x08, 0x20, 0x00, 0x00, 0x04,
  0x40, 0x02, 0x00, 0x00, 0x00, 0x00, 0x00, 0x02, 0x40, 0x02, 0xc0, 0x81,
  0xf0, 0x0f, 0x00, 0x02, 0x40, 0x02, 0x80, 0xe3, 0xf8, 0x07, 0x00, 0x02,
  0x40, 0x02, 0x00, 0xf3, 0x4c, 0x00, 0x00, 0x02, 0x40, 0x04, 0x00, 0xd7,
  0xe0, 0x07, 0x00, 0x02, 0x80, 0x04, 0x00, 0x47, 0x58, 0x00, 0x00, 0x02,
  0x80, 0x04, 0xc0, 0x4c, 0xe0, 0x03, 0x00, 0x01, 0x80, 0x04, 0x60, 0x78,
  0x58, 0x00, 0x00, 0x01, 0x80, 0x04, 0x60, 0x7c, 0xc0, 0x03, 0x00, 0x01,
  0x80, 0x04, 0x00, 0x46, 0xf0, 0x01, 0x00, 0x01, 0x80, 0x08, 0x00, 0xf2,
  0x00, 0x0c, 0x00, 0x01, 0x80, 0x08, 0x00, 0xde, 0x18, 0x06, 0x00, 0x01,
  0x00, 0x09, 0x00, 0xc2, 0x30, 0x03, 0x00, 0x01, 0x00, 0x09, 0x00, 0xfe,
  0xe0, 0x01, 0x80, 0x00, 0x00, 0x09, 0x00, 0xdc, 0xc0, 0x00, 0x80, 0x00,
  0x00, 0x09, 0x00, 0x40, 0x40, 0x00, 0x80, 0x00, 0x00, 0x09, 0x00, 0x00,
  0x00, 0x00, 0x80, 0x00, 0x00, 0x12, 0x00, 0x00, 0x00, 0x00, 0x80, 0x00,
  0x00, 0x14, 0x00, 0x00, 0x00, 0x00, 0x80, 0x00, 0x00, 0x18, 0x00, 0x00,
  0x00, 0x00, 0x80, 0x00, 0x00, 0x10, 0x00, 0x00, 0x00, 0x00, 0x70, 0x00,
  0x00, 0x60, 0x00, 0x00, 0x00, 0x00, 0x0f, 0x00, 0x00, 0x80, 0x07, 0x00,
  0x00, 0xf0, 0x00, 0x00, 0x00, 0x00, 0x38, 0x00, 0x00, 0x0e, 0x00, 0x00,
  0x00, 0x00, 0xc0, 0x03, 0xe0, 0x01, 0x00, 0x00, 0x00, 0x00, 0x00, 0x3c,
  0x1e, 0x00, 0x00, 0x00, 0x00, 0x00, 0x00, 0xc0, 0x01, 0x00, 0x00, 0x00,
  0x00, 0x00, 0x00, 0x00, 0x00, 0x00, 0x00, 0x00, };
