#define goldW_width 32
#define goldW_height 32
static char goldW_bits[] = {
   0x00, 0x00, 0x00, 0x00, 0x00, 0xc0, 0x01, 0x00, 0x00, 0x30, 0x06, 0x00,
   0x00, 0x0c, 0x18, 0x00, 0x00, 0x03, 0x60, 0x00, 0xc0, 0x00, 0x80, 0x01,
   0x20, 0x00, 0x00, 0x02, 0x20, 0x00, 0x00, 0x06, 0x20, 0x80, 0x00, 0x06,
   0x20, 0x40, 0x01, 0x06, 0x10, 0x40, 0x01, 0x04, 0x10, 0x20, 0x02, 0x0c,
   0x10, 0x20, 0x02, 0x0c, 0x10, 0x10, 0x04, 0x0c, 0x08, 0x10, 0x04, 0x08,
   0x08, 0xc8, 0x09, 0x18, 0x08, 0x28, 0x08, 0x18, 0x08, 0xa4, 0x13, 0x18,
   0x04, 0x28, 0x09, 0x10, 0x04, 0xc8, 0x09, 0x30, 0x04, 0x10, 0x04, 0x30,
   0x04, 0x10, 0x04, 0x30, 0x02, 0x20, 0x02, 0x20, 0x02, 0x20, 0x02, 0x60,
   0x02, 0x40, 0x01, 0x60, 0x02, 0x40, 0x01, 0x60, 0x01, 0x80, 0x00, 0x40,
   0x01, 0x00, 0x00, 0xc0, 0x01, 0x00, 0x00, 0xc0, 0x01, 0x00, 0x00, 0xc0,
   0xff, 0xff, 0xff, 0xff, 0xfe, 0xff, 0xff, 0xff};
