#define lanceRW_width 32
#define lanceRW_height 32
static char lanceRW_bits[] = {
   0xfe, 0xff, 0xff, 0xff, 0xff, 0xff, 0xff, 0xff, 0x01, 0x00, 0x00, 0xc0,
   0x01, 0x00, 0x00, 0xc0, 0x01, 0x00, 0x00, 0xc0, 0x01, 0x00, 0x00, 0x40,
   0x02, 0x00, 0x62, 0x60, 0x02, 0x00, 0x75, 0x60, 0x02, 0x80, 0x38, 0x60,
   0x02, 0x80, 0x10, 0x20, 0x04, 0x40, 0x24, 0x30, 0x04, 0x20, 0x42, 0x30,
   0x04, 0x10, 0x21, 0x30, 0x04, 0x88, 0x18, 0x10, 0x08, 0x48, 0x04, 0x18,
   0x08, 0x24, 0x02, 0x18, 0x08, 0x12, 0x01, 0x18, 0x08, 0xc9, 0x00, 0x08,
   0x10, 0x25, 0x00, 0x0c, 0x90, 0x10, 0x00, 0x0c, 0x90, 0x8d, 0x00, 0x0c,
   0x90, 0x83, 0x00, 0x04, 0x20, 0x80, 0x00, 0x06, 0x20, 0x80, 0x00, 0x06,
   0x20, 0x80, 0x00, 0x06, 0x20, 0x80, 0x07, 0x02, 0xc0, 0x00, 0x80, 0x01,
   0x00, 0x03, 0x60, 0x00, 0x00, 0x0c, 0x18, 0x00, 0x00, 0x30, 0x06, 0x00,
   0x00, 0xc0, 0x01, 0x00, 0x00, 0x00, 0x00, 0x00};
