#define lanceW_width 32
#define lanceW_height 32
static char lanceW_bits[] = {
   0x00, 0x00, 0x00, 0x00, 0x00, 0xc0, 0x01, 0x00, 0x00, 0x30, 0x06, 0x00,
   0x00, 0x0c, 0x18, 0x00, 0x00, 0x03, 0x60, 0x00, 0xc0, 0x00, 0x80, 0x01,
   0x20, 0x00, 0x00, 0x02, 0x20, 0x02, 0x00, 0x06, 0x20, 0x02, 0x00, 0x06,
   0x20, 0x02, 0x00, 0x06, 0x10, 0x02, 0x00, 0x04, 0x10, 0x02, 0x70, 0x0c,
   0x10, 0x1e, 0x4c, 0x0c, 0x10, 0x00, 0x42, 0x0c, 0x08, 0x80, 0x29, 0x08,
   0x08, 0x40, 0x24, 0x18, 0x08, 0x20, 0x12, 0x18, 0x08, 0x10, 0x09, 0x18,
   0x04, 0x8c, 0x08, 0x10, 0x04, 0x42, 0x04, 0x30, 0x04, 0x21, 0x02, 0x30,
   0x04, 0x12, 0x01, 0x30, 0x02, 0x84, 0x00, 0x20, 0x02, 0x8f, 0x00, 0x60,
   0x82, 0x57, 0x00, 0x60, 0xc2, 0x27, 0x00, 0x60, 0xe1, 0x03, 0x00, 0x40,
   0xc1, 0x01, 0x00, 0xc0, 0x81, 0x00, 0x00, 0xc0, 0x01, 0x00, 0x00, 0xc0,
   0xff, 0xff, 0xff, 0xff, 0xfe, 0xff, 0xff, 0xff};
