#define pawnRW_width 64
#define pawnRW_height 64
static unsigned char pawnRW_bits[] = {
 0x00,0x00,0x00,0x00,0x00,0x00,0x00,0x00,0x00,0x00,0x00,0x00,0x00,0x00,0x00,
 0x00,0x00,0x00,0x00,0x00,0x00,0x00,0x00,0x00,0xf8,0xff,0xff,0xff,0xff,0xff,
 0x3f,0x00,0x18,0x00,0x00,0x00,0x00,0x00,0x40,0x00,0x28,0x00,0x00,0x00,0x00,
 0x00,0x80,0x00,0x48,0x00,0x00,0x00,0x00,0x00,0x00,0x01,0x90,0xff,0xff,0xff,
 0xff,0xff,0xff,0x01,0x10,0x01,0x00,0x00,0x00,0x00,0x00,0x01,0x10,0x01,0x00,
 0x00,0x00,0x00,0x00,0x01,0x10,0x01,0x00,0x00,0x00,0x00,0x00,0x01,0x10,0x02,
 0x00,0x00,0x00,0x00,0x80,0x00,0x10,0x02,0x00,0x00,0x00,0x00,0x80,0x00,0x20,
 0x02,0x00,0x00,0x00,0x00,0x80,0x00,0x20,0x02,0x00,0x00,0x00,0x00,0x80,0x00,
 0x20,0x02,0x00,0x00,0x00,0x00,0x80,0x00,0x20,0x02,0x00,0x00,0x00,0x00,0x80,
 0x00,0x20,0x02,0x00,0x00,0x00,0x00,0x80,0x00,0x20,0x04,0x00,0x00,0x00,0x00,
 0x40,0x00,0x20,0x04,0x00,0x00,0x00,0x00,0x40,0x00,0x40,0x04,0x00,0x00,0x00,
 0x00,0x40,0x00,0x40,0x04,0x00,0x00,0x00,0x00,0x40,0x00,0x40,0x04,0x00,0x00,
 0x00,0x00,0x40,0x00,0x40,0x04,0x00,0x00,0x00,0x00,0x40,0x00,0x40,0x04,0x00,
 0x00,0x00,0x00,0x40,0x00,0x40,0x08,0x00,0x00,0x00,0x00,0x20,0x00,0x80,0x08,
 0x00,0x00,0x01,0x00,0x20,0x00,0x80,0x08,0x00,0x00,0x01,0x00,0x20,0x00,0x80,
 0x08,0x00,0x00,0x01,0x00,0x20,0x00,0x80,0x08,0x00,0x00,0x01,0x00,0x20,0x00,
 0x80,0x08,0x00,0x00,0x01,0x00,0x20,0x00,0x80,0x10,0x00,0x00,0x01,0x00,0x10,
 0x00,0x80,0x10,0x00,0x00,0x01,0x00,0x10,0x00,0x00,0x11,0x00,0x00,0x01,0x00,
 0x10,0x00,0x00,0x11,0x00,0x00,0x01,0x00,0x10,0x00,0x00,0x11,0x00,0x00,0x01,
 0x00,0x10,0x00,0x00,0x11,0x00,0x00,0x01,0x00,0x10,0x00,0x00,0x11,0x00,0x00,
 0x01,0x00,0x10,0x00,0x00,0x21,0x00,0x00,0x01,0x00,0x08,0x00,0x00,0x22,0x00,
 0x00,0x00,0x00,0x08,0x00,0x00,0x22,0x00,0x00,0x00,0x00,0x08,0x00,0x00,0x22,
 0x00,0x00,0x00,0x00,0x08,0x00,0x00,0x22,0x00,0x00,0x00,0x00,0x08,0x00,0x00,
 0x24,0x00,0x00,0x00,0x00,0x08,0x00,0x00,0x28,0x00,0x00,0x04,0x00,0x08,0x00,
 0x00,0x48,0x00,0x00,0x04,0x00,0x04,0x00,0x00,0x50,0x00,0x00,0x04,0x00,0x04,
 0x00,0x00,0x50,0x00,0x80,0x07,0x00,0x04,0x00,0x00,0x60,0x00,0x40,0x04,0x00,
 0x04,0x00,0x00,0xc0,0x00,0x40,0x04,0x00,0x06,0x00,0x00,0x00,0x07,0x80,0x07,
 0xc0,0x01,0x00,0x00,0x00,0x38,0x00,0x00,0x38,0x00,0x00,0x00,0x00,0xc0,0x01,
 0x00,0x07,0x00,0x00,0x00,0x00,0x00,0x0e,0xe0,0x00,0x00,0x00,0x00,0x00,0x00,
 0x70,0x1c,0x00,0x00,0x00,0x00,0x00,0x00,0x80,0x03,0x00,0x00,0x00,0x00,0x00,
 0x00,0x00,0x01,0x00,0x00,0x00,0x00,0x00,0x00,0x00,0x00,0x00,0x00,0x00,0x00,
 0x00,0x00,0x00,0x00,0x00,0x00,0x00,0x00,0x00,0x00,0x00,0x00,0x00,0x00,0x00,
 0x00,0x00,0x00,0x00,0x00,0x00,0x00,0x00,0x00,0x00,0x00,0x00,0x00,0x00,0x00,
 0x00,0x00,0x00,0x00,0x00,0x00,0x00,0x00,0x00,0x00,0x00,0x00,0x00,0x00,0x00,
 0x00,0x00};
