#define silverRW_width 64
#define silverRW_height 64
static unsigned char silverRW_bits[] = {
 0x00,0x00,0x00,0x00,0x00,0x00,0x00,0x00,0x00,0x00,0x00,0x00,0x00,0x00,0x00,
 0x00,0xfe,0xff,0xff,0xff,0xff,0xff,0xff,0x07,0x06,0x00,0x00,0x00,0x00,0x00,
 0x00,0x08,0x0a,0x00,0x00,0x00,0x00,0x00,0x00,0x10,0x12,0x00,0x00,0x00,0x00,
 0x00,0x00,0x20,0xe4,0xff,0xff,0xff,0xff,0xff,0xff,0x7f,0x24,0x00,0x00,0x00,
 0x00,0x00,0x00,0x40,0x24,0x00,0x00,0x00,0x00,0x00,0x00,0x40,0x24,0x00,0x00,
 0x00,0x00,0x00,0x00,0x40,0x24,0x00,0x00,0x00,0x00,0x00,0x00,0x40,0x24,0x00,
 0x00,0x00,0x00,0x00,0x00,0x40,0x24,0x00,0x00,0x00,0x00,0x00,0x00,0x20,0x44,
 0x00,0x00,0x00,0x00,0x00,0x00,0x20,0x48,0x00,0x10,0x00,0x00,0x10,0x00,0x20,
 0x48,0x00,0x20,0x00,0x00,0x08,0x00,0x20,0x48,0x00,0x40,0x00,0x00,0x04,0x00,
 0x20,0x48,0x00,0x80,0x00,0x00,0x02,0x00,0x20,0x48,0x00,0x00,0x01,0x00,0x01,
 0x00,0x10,0x48,0x00,0x00,0x02,0x80,0x00,0x00,0x10,0x88,0x00,0x00,0x04,0x40,
 0x00,0x00,0x10,0x90,0x00,0x00,0x08,0x20,0x00,0x00,0x10,0x90,0x00,0x00,0x10,
 0x10,0x00,0x00,0x10,0x90,0x00,0x00,0x20,0x08,0x00,0x00,0x10,0x90,0x00,0x00,
 0x40,0x04,0x00,0x00,0x08,0x90,0x00,0x00,0x80,0x02,0x00,0x00,0x08,0x10,0x01,
 0x00,0x00,0x01,0x00,0x00,0x08,0x10,0x01,0x00,0x80,0x03,0x00,0x00,0x08,0x20,
 0x01,0x00,0x40,0x05,0x00,0x00,0x08,0x20,0x01,0x00,0x20,0x09,0x00,0x00,0x08,
 0x20,0x01,0x00,0x10,0x11,0x00,0x00,0x04,0x20,0x01,0x00,0x08,0x21,0x00,0x00,
 0x04,0x20,0x01,0x00,0x04,0x41,0x00,0x00,0x04,0x20,0x02,0x00,0x02,0x81,0x00,
 0x00,0x04,0x20,0x02,0x00,0x01,0x01,0x01,0x00,0x04,0x40,0x02,0x80,0x00,0x01,
 0x02,0x00,0x04,0x40,0x02,0x40,0x00,0x01,0x04,0x00,0x02,0x40,0x02,0x20,0x00,
 0x01,0x08,0x00,0x02,0x40,0x02,0x10,0x00,0x01,0x10,0x00,0x02,0x40,0x02,0x00,
 0x00,0x00,0x00,0x00,0x02,0x40,0x04,0x00,0x00,0x00,0x00,0x00,0x02,0x80,0x04,
 0x00,0x00,0x00,0x00,0x00,0x02,0x80,0x04,0x00,0x00,0x00,0x00,0x00,0x01,0x80,
 0x04,0x00,0x00,0x00,0x00,0x00,0x01,0x80,0x04,0x00,0x80,0x07,0x00,0x00,0x01,
 0x80,0x04,0x00,0x40,0x00,0x00,0x00,0x01,0x80,0x08,0x00,0x40,0x00,0x00,0x00,
 0x01,0x80,0x08,0x00,0x80,0x03,0x00,0x00,0x01,0x00,0x09,0x00,0x00,0x04,0x00,
 0x00,0x01,0x00,0x09,0x00,0x00,0x04,0x00,0x80,0x00,0x00,0x09,0x00,0xc0,0x03,
 0x00,0x80,0x00,0x00,0x09,0x00,0x00,0x00,0x00,0x80,0x00,0x00,0x09,0x00,0x00,
 0x00,0x00,0x80,0x00,0x00,0x12,0x00,0x00,0x00,0x00,0x80,0x00,0x00,0x14,0x00,
 0x00,0x00,0x00,0x80,0x00,0x00,0x18,0x00,0x00,0x00,0x00,0x80,0x00,0x00,0x10,
 0x00,0x00,0x00,0x00,0x70,0x00,0x00,0x60,0x00,0x00,0x00,0x00,0x0f,0x00,0x00,
 0x80,0x07,0x00,0x00,0xf0,0x00,0x00,0x00,0x00,0x38,0x00,0x00,0x0e,0x00,0x00,
 0x00,0x00,0xc0,0x03,0xe0,0x01,0x00,0x00,0x00,0x00,0x00,0x3c,0x1e,0x00,0x00,
 0x00,0x00,0x00,0x00,0xc0,0x01,0x00,0x00,0x00,0x00,0x00,0x00,0x00,0x00,0x00,
 0x00,0x00};
