#define bigblank_width 32
#define bigblank_height 32
static char bigblank_bits[] = {
 0x00,0x00,0x00,0x00,0x00,0xe0,0x03,0x00,0x00,0x18,0x0c,0x00,0x00,0x06,0x30,
 0x00,0x80,0x01,0xc0,0x00,0x40,0x00,0x00,0x01,0x40,0x00,0x00,0x03,0x40,0x00,
 0x00,0x03,0x40,0x00,0x00,0x03,0x20,0x00,0x00,0x02,0x20,0x00,0x00,0x06,0x20,
 0x00,0x00,0x06,0x20,0x00,0x00,0x06,0x10,0x00,0x00,0x04,0x10,0x00,0x00,0x0c,
 0x10,0x00,0x00,0x0c,0x10,0x00,0x00,0x0c,0x08,0x00,0x00,0x08,0x08,0x00,0x00,
 0x18,0x08,0x00,0x00,0x18,0x08,0x00,0x00,0x18,0x04,0x00,0x00,0x10,0x04,0x00,
 0x00,0x30,0x04,0x00,0x00,0x30,0x04,0x00,0x00,0x30,0x02,0x00,0x00,0x20,0x02,
 0x00,0x00,0x60,0x02,0x00,0x00,0x60,0x02,0x00,0x00,0x60,0xfe,0xff,0xff,0x7f,
 0xfc,0xff,0xff,0x7f,0x00,0x00,0x00,0x00};
