#define icon_width 32
#define icon_height 32
static char icon_bits[] = {
   0x00, 0x00, 0x00, 0x00, 0x00, 0x00, 0x03, 0x00, 0x00, 0xc0, 0x0c, 0x00,
   0x00, 0x20, 0x10, 0x00, 0x00, 0x20, 0x30, 0x00, 0x00, 0x20, 0x30, 0x00,
   0x00, 0x10, 0x20, 0x00, 0x00, 0x10, 0x60, 0x00, 0x00, 0x10, 0x67, 0x00,
   0x00, 0xc8, 0x49, 0x00, 0x00, 0x28, 0xc9, 0x00, 0x00, 0x38, 0xf9, 0x00,
   0x00, 0x10, 0xf9, 0x00, 0x00, 0x20, 0x09, 0x00, 0x00, 0x20, 0x39, 0x00,
   0x00, 0x20, 0x49, 0x00, 0x00, 0x23, 0xc9, 0x00, 0x80, 0x24, 0x48, 0x01,
   0x80, 0x18, 0x40, 0x02, 0x00, 0x01, 0x00, 0x02, 0x00, 0x02, 0x00, 0x02,
   0x00, 0x05, 0x00, 0x02, 0x00, 0x09, 0x00, 0x01, 0x00, 0x11, 0x00, 0x01,
   0x00, 0x25, 0x80, 0x00, 0x00, 0x25, 0x40, 0x02, 0x00, 0x25, 0x40, 0x02,
   0x00, 0xf4, 0xff, 0x02, 0x00, 0xf1, 0xff, 0x02, 0x00, 0xf4, 0xff, 0x00,
   0x00, 0x11, 0x80, 0x02, 0x00, 0x00, 0x00, 0x00};
