#define knight_l_width 64
#define knight_l_height 64
static unsigned char knight_l_bits[] = {
 0x00,0x00,0x00,0x00,0x00,0x00,0x00,0x00,0x00,0x00,0x00,0x00,0x00,0x00,0x00,
 0x00,0x00,0x00,0x00,0x00,0x00,0x00,0x00,0x00,0x00,0x00,0x00,0x00,0x00,0x00,
 0x00,0x00,0x00,0x00,0x00,0x00,0x00,0x00,0x00,0x00,0x00,0x00,0x00,0xf0,0x01,
 0x00,0x00,0x00,0x00,0x00,0x00,0x4f,0x0e,0x00,0x00,0x00,0x00,0x00,0xf0,0x80,
 0x70,0x00,0x00,0x00,0x00,0x00,0x0f,0xc0,0x81,0x03,0x00,0x00,0x00,0xf0,0x00,
 0x38,0x0e,0x1c,0x00,0x00,0x00,0x08,0x00,0x07,0x70,0x60,0x00,0x00,0x00,0x0c,
 0xe0,0x00,0x80,0x83,0x00,0x00,0x00,0x14,0x1c,0x00,0x00,0x1c,0x01,0x00,0x00,
 0x94,0x03,0x00,0x10,0xe0,0x01,0x00,0x00,0x64,0x00,0x04,0x18,0x00,0x03,0x00,
 0x00,0x22,0x00,0x06,0x18,0x00,0x02,0x00,0x00,0x22,0x00,0x06,0x18,0x00,0x02,
 0x00,0x00,0x22,0xc0,0x0f,0xff,0x00,0x02,0x00,0x00,0x22,0xe0,0x1f,0x7f,0x00,
 0x02,0x00,0x00,0x12,0x70,0x86,0x19,0x00,0x04,0x00,0x00,0x12,0x00,0x06,0xfc,
 0x01,0x04,0x00,0x00,0x11,0x00,0x07,0xff,0x00,0x04,0x00,0x00,0x11,0x00,0x87,
 0x1b,0x00,0x04,0x00,0x00,0x11,0x80,0x07,0xfc,0x01,0x04,0x00,0x00,0x11,0xc0,
 0x07,0xff,0x00,0x04,0x00,0x00,0x11,0xe0,0x86,0x19,0x00,0x04,0x00,0x00,0x09,
 0x60,0x06,0x38,0x02,0x08,0x00,0x80,0x08,0x20,0x87,0xff,0x07,0x08,0x00,0x80,
 0x08,0x00,0xc7,0xff,0x07,0x08,0x00,0x80,0x08,0x00,0x46,0x00,0x00,0x08,0x00,
 0x80,0x08,0x00,0x02,0x00,0x00,0x08,0x00,0x80,0x08,0x00,0x00,0x00,0x00,0x08,
 0x00,0x80,0x08,0x00,0x00,0x00,0x00,0x08,0x00,0x40,0x04,0x00,0xfa,0x0f,0x00,
 0x10,0x00,0x40,0x04,0x00,0xfe,0x07,0x00,0x10,0x00,0x40,0x04,0x00,0xc6,0x00,
 0x00,0x10,0x00,0x40,0x04,0x00,0xfe,0x0f,0x00,0x10,0x00,0x40,0x04,0x00,0xc6,
 0x00,0x00,0x10,0x00,0x40,0x04,0x00,0xfe,0x0f,0x00,0x10,0x00,0x20,0x02,0x00,
 0xc6,0x00,0x00,0x20,0x00,0x20,0x02,0x00,0xf6,0x3f,0x00,0x20,0x00,0x20,0x02,
 0x00,0xfe,0xff,0x07,0x20,0x00,0x20,0x02,0x00,0x00,0xfe,0x0f,0x20,0x00,0x20,
 0x02,0x00,0x00,0x00,0x0e,0x20,0x00,0x20,0x02,0x10,0x31,0x06,0x0c,0x20,0x00,
 0x10,0x02,0x30,0x63,0x0e,0x0c,0x20,0x00,0x10,0x01,0x70,0xe7,0x1c,0x0e,0x40,
 0x00,0x10,0x01,0x70,0xe7,0x1c,0x06,0x40,0x00,0x10,0x01,0x00,0x00,0x00,0x03,
 0x40,0x00,0x10,0x01,0x00,0x00,0x8c,0x03,0x40,0x00,0x20,0x01,0x00,0x00,0x8c,
 0x01,0x40,0x00,0x20,0x01,0x00,0x00,0xf8,0x00,0x40,0x00,0x20,0x01,0x00,0x00,
 0xf8,0x00,0x40,0x00,0xa0,0x00,0x00,0x00,0x78,0x00,0x80,0x00,0xc0,0x00,0x00,
 0x00,0x00,0x00,0x80,0x00,0xc0,0x00,0x00,0x00,0x00,0x00,0xc0,0x00,0x80,0xff,
 0xff,0xff,0xff,0xff,0x7f,0x00,0x00,0x00,0x00,0x00,0x00,0x00,0x00,0x00,0x00,
 0x00,0x00,0x00,0x00,0x00,0x00,0x00,0x00,0x00,0x00,0x00,0x00,0x00,0x00,0x00,
 0x00,0x00,0x00,0x00,0x00,0x00,0x00,0x00,0x00,0x00,0x00,0x00,0x00,0x00,0x00,
 0x00,0x00,0x00,0x00,0x00,0x00,0x00,0x00,0x00,0x00,0x00,0x00,0x00,0x00,0x00,
 0x00,0x00};
