#define pawnPR_width 32
#define pawnPR_height 32
static unsigned char pawnPR_bits[] = {
 0xfc,0xff,0xff,0x1f,0x04,0x00,0x00,0x30,0x04,0x00,0x00,0x30,0x04,0x00,0x00,
 0x30,0x04,0x00,0x00,0x30,0x08,0x00,0x00,0x18,0x08,0x00,0x00,0x18,0x08,0xf8,
 0x03,0x18,0x08,0xf8,0x07,0x18,0x10,0x00,0x06,0x0c,0x10,0x00,0x06,0x0c,0x10,
 0x00,0x03,0x0c,0x10,0xc0,0x01,0x0c,0x20,0xb0,0x01,0x06,0x20,0x80,0x01,0x06,
 0x20,0x80,0x01,0x06,0x20,0x80,0x01,0x06,0x40,0x80,0x01,0x03,0x40,0x00,0x00,
 0x03,0x40,0x00,0x00,0x03,0x40,0x00,0x00,0x03,0x80,0x00,0x80,0x01,0x80,0x00,
 0x80,0x01,0x80,0x00,0x80,0x01,0x00,0x03,0xe0,0x00,0x00,0x0c,0x78,0x00,0x00,
 0x30,0x1e,0x00,0x00,0xc0,0x07,0x00,0x00,0x80,0x01,0x00,0x00,0x00,0x00,0x00,
 0x00,0x00,0x00,0x00,0x00,0x00,0x00,0x00};
