#define pawnR_width 32
#define pawnR_height 32
static unsigned char pawnR_bits[] = {
 0xfc,0xff,0xff,0x1f,0x04,0x00,0x00,0x30,0x04,0x00,0x00,0x30,0x04,0x04,0x04,
 0x30,0x04,0x08,0x02,0x30,0x08,0xfe,0x1f,0x18,0x08,0x30,0x06,0x18,0x08,0x30,
 0x06,0x18,0x08,0xf8,0x07,0x18,0x10,0x00,0x06,0x0c,0x10,0xf8,0x01,0x0c,0x10,
 0x00,0x00,0x0c,0x10,0x80,0x07,0x0c,0x20,0xe0,0x00,0x06,0x20,0x30,0x00,0x06,
 0x20,0x84,0x08,0x06,0x20,0xc8,0x04,0x06,0x40,0xd0,0x02,0x03,0x40,0xfc,0x1f,
 0x03,0x40,0xc0,0x06,0x03,0x40,0xf0,0x06,0x03,0x80,0xc0,0x80,0x01,0x80,0x00,
 0x80,0x01,0x80,0x00,0x80,0x01,0x00,0x03,0xe0,0x00,0x00,0x0c,0x78,0x00,0x00,
 0x30,0x1e,0x00,0x00,0xc0,0x07,0x00,0x00,0x80,0x01,0x00,0x00,0x00,0x00,0x00,
 0x00,0x00,0x00,0x00,0x00,0x00,0x00,0x00};
