#define pawnP_width 32
#define pawnP_height 32
static char pawnP_bits[] = {
 0x00,0x00,0x00,0x00,0x00,0x00,0x00,0x00,0x00,0x00,0x00,0x00,0x00,0xc0,0x01,
 0x00,0x00,0x30,0x06,0x00,0x00,0x0c,0x18,0x00,0x00,0x03,0x60,0x00,0x80,0x00,
 0x80,0x00,0x80,0x00,0x80,0x01,0x80,0x00,0x80,0x01,0x40,0x00,0x00,0x01,0x40,
 0x00,0x00,0x03,0x40,0x00,0x00,0x03,0x40,0xc0,0x00,0x03,0x20,0xc0,0x00,0x02,
 0x20,0xc0,0x00,0x06,0x20,0xc0,0x00,0x06,0x20,0xc0,0x06,0x06,0x10,0xc0,0x01,
 0x04,0x10,0x60,0x00,0x0c,0x10,0x30,0x00,0x0c,0x10,0x30,0x00,0x0c,0x08,0xf0,
 0x0f,0x08,0x08,0xe0,0x0f,0x18,0x08,0x00,0x00,0x18,0x08,0x00,0x00,0x18,0x04,
 0x00,0x00,0x10,0x04,0x00,0x00,0x30,0x04,0x00,0x00,0x30,0x04,0x00,0x00,0x30,
 0xfc,0xff,0xff,0x3f,0xf8,0xff,0xff,0x3f};
